<svg width="730" height="771" viewBox="0 0 730 771" fill="none" xmlns="http://www.w3.org/2000/svg">
<g filter="url(#filter0_dddd_3_569)">
<path fill-rule="evenodd" clip-rule="evenodd" d="M364.798 429.266L224.159 574.071C202.48 596.397 172.679 609 141.555 609H133.87C102.871 609 74.1657 592.663 58.3304 566.014C42.4951 539.365 41.8724 506.348 56.6922 479.119L287.619 54.8579C303.005 26.5947 332.615 9 364.798 9V429.266Z" fill="url(#paint0_linear_3_569)"/>
<path fill-rule="evenodd" clip-rule="evenodd" d="M364.794 429.266C306.98 371.452 264.235 356.446 223.064 357.919C181.863 357.919 134.559 368.394 83.2181 430.381L227.644 165.344C227.696 165.143 227.748 164.95 227.808 164.749L287.615 54.8579C303.008 26.5947 332.61 9 364.794 9C396.978 9 426.588 26.5947 441.973 54.8579L672.9 479.119C687.72 506.348 687.097 539.365 671.262 566.014C655.427 592.663 626.721 609 595.723 609H588.038C556.913 609 527.112 596.397 505.433 574.071L364.794 429.266Z" fill="url(#paint1_linear_3_569)"/>
</g>
<defs>
<filter id="filter0_dddd_3_569" x="0" y="0" width="729.592" height="771" filterUnits="userSpaceOnUse" color-interpolation-filters="sRGB">
<feFlood flood-opacity="0" result="BackgroundImageFix"/>
<feColorMatrix in="SourceAlpha" type="matrix" values="0 0 0 0 0 0 0 0 0 0 0 0 0 0 0 0 0 0 127 0" result="hardAlpha"/>
<feOffset dy="7"/>
<feGaussianBlur stdDeviation="8"/>
<feColorMatrix type="matrix" values="0 0 0 0 0 0 0 0 0 0 0 0 0 0 0 0 0 0 0.05 0"/>
<feBlend mode="normal" in2="BackgroundImageFix" result="effect1_dropShadow_3_569"/>
<feColorMatrix in="SourceAlpha" type="matrix" values="0 0 0 0 0 0 0 0 0 0 0 0 0 0 0 0 0 0 127 0" result="hardAlpha"/>
<feOffset dy="29"/>
<feGaussianBlur stdDeviation="14.5"/>
<feColorMatrix type="matrix" values="0 0 0 0 0 0 0 0 0 0 0 0 0 0 0 0 0 0 0.04 0"/>
<feBlend mode="normal" in2="effect1_dropShadow_3_569" result="effect2_dropShadow_3_569"/>
<feColorMatrix in="SourceAlpha" type="matrix" values="0 0 0 0 0 0 0 0 0 0 0 0 0 0 0 0 0 0 127 0" result="hardAlpha"/>
<feOffset dy="65"/>
<feGaussianBlur stdDeviation="19.5"/>
<feColorMatrix type="matrix" values="0 0 0 0 0 0 0 0 0 0 0 0 0 0 0 0 0 0 0.03 0"/>
<feBlend mode="normal" in2="effect2_dropShadow_3_569" result="effect3_dropShadow_3_569"/>
<feColorMatrix in="SourceAlpha" type="matrix" values="0 0 0 0 0 0 0 0 0 0 0 0 0 0 0 0 0 0 127 0" result="hardAlpha"/>
<feOffset dy="116"/>
<feGaussianBlur stdDeviation="23"/>
<feColorMatrix type="matrix" values="0 0 0 0 0 0 0 0 0 0 0 0 0 0 0 0 0 0 0.01 0"/>
<feBlend mode="normal" in2="effect3_dropShadow_3_569" result="effect4_dropShadow_3_569"/>
<feBlend mode="normal" in="SourceGraphic" in2="effect4_dropShadow_3_569" result="shape"/>
</filter>
<linearGradient id="paint0_linear_3_569" x1="255.426" y1="352.34" x2="189.957" y2="615.703" gradientUnits="userSpaceOnUse">
<stop stop-color="#0A9192"/>
<stop offset="1" stop-color="#3ADAB7"/>
</linearGradient>
<linearGradient id="paint1_linear_3_569" x1="403.103" y1="9" x2="383.76" y2="566.973" gradientUnits="userSpaceOnUse">
<stop stop-color="#4CEDB7"/>
<stop offset="1" stop-color="#1EBBB6"/>
</linearGradient>
</defs>
</svg>
